<?xml version="1.0" standalone="no"?>
<!DOCTYPE svg PUBLIC "-//W3C//DTD SVG 20010904//EN"
 "http://www.w3.org/TR/2001/REC-SVG-20010904/DTD/svg10.dtd">
<svg version="1.0" xmlns="http://www.w3.org/2000/svg"
 width="700.000000pt" height="700.000000pt" viewBox="0 0 700.000000 700.000000"
 preserveAspectRatio="xMidYMid meet">
<metadata>
Created by potrace 1.14, written by Peter Selinger 2001-2017
</metadata>
<g transform="translate(0.000000,700.000000) scale(0.100000,-0.100000)"
fill="#000000" stroke="none">
<path d="M6355 6994 c-259 -53 -403 -162 -468 -354 -127 -377 -193 -441 -388
-380 -147 46 -191 111 -155 231 30 102 145 264 271 380 48 44 49 50 13 55 -13
1 -47 6 -76 9 -193 25 -354 -3 -474 -84 -110 -74 -187 -179 -268 -366 -54
-125 -104 -224 -128 -251 -25 -30 -75 -54 -111 -54 -42 0 -135 36 -171 67 -42
35 -56 89 -40 148 15 53 73 140 137 206 25 26 41 49 36 51 -25 13 -262 17
-329 6 -62 -10 -166 -53 -226 -91 -30 -19 -114 -85 -188 -147 -74 -62 -172
-137 -217 -167 l-82 -54 -68 7 c-88 8 -375 8 -478 1 -90 -7 -233 -25 -325 -42
-177 -31 -485 -120 -605 -174 -11 -5 -42 -19 -70 -31 -167 -73 -391 -195 -510
-279 -27 -19 -64 -45 -82 -56 -109 -75 -306 -246 -420 -367 -175 -183 -328
-388 -455 -608 -60 -104 -95 -177 -178 -365 -54 -124 -145 -426 -175 -580 -23
-126 -40 -250 -51 -390 -3 -49 -4 -379 0 -420 8 -92 18 -184 22 -210 10 -67
46 -260 49 -266 2 -3 6 -16 8 -30 34 -179 158 -511 273 -728 332 -624 838
-1099 1479 -1388 204 -91 505 -187 690 -218 17 -3 55 -10 85 -15 255 -44 697
-49 920 -10 30 5 71 12 90 14 110 15 368 79 470 117 30 12 62 22 70 24 33 8
201 80 315 135 217 106 436 248 629 409 100 83 282 262 346 340 25 29 50 59
56 65 58 63 226 305 296 431 175 310 320 711 362 1000 3 22 8 51 11 65 38 208
47 595 20 808 -5 39 -1 50 40 110 24 37 108 146 185 242 143 178 212 291 245
400 20 67 28 209 14 269 -11 51 -46 131 -57 131 -4 0 -22 -23 -41 -51 -82
-121 -214 -190 -353 -183 -134 6 -231 109 -199 214 23 78 93 136 229 190 138
55 224 124 316 253 146 207 228 464 230 717 1 151 -2 179 -33 265 -11 32 -21
61 -21 63 0 2 -4 0 -10 -3 -5 -3 -10 -16 -10 -29 0 -35 -54 -111 -103 -145
-80 -54 -117 -66 -217 -65 -86 0 -126 16 -177 72 -27 30 -32 44 -38 106 -6 66
-4 90 11 171 36 189 202 423 382 539 76 50 169 93 215 102 59 10 61 18 19 56
-98 89 -215 128 -397 133 -66 1 -129 1 -140 -1z m-2960 -1458 c50 -4 97 -9
105 -11 8 -2 33 -6 55 -9 67 -10 145 -27 242 -52 888 -234 1565 -944 1762
-1849 11 -49 22 -112 26 -140 3 -27 8 -63 11 -80 2 -16 6 -50 9 -75 6 -54 6
-370 0 -420 -11 -98 -16 -141 -26 -199 -5 -36 -12 -67 -13 -70 -2 -3 -7 -24
-10 -46 -4 -22 -20 -87 -37 -144 -96 -332 -238 -602 -474 -901 -43 -54 -264
-269 -335 -326 -305 -244 -648 -408 -1025 -489 -107 -23 -128 -26 -258 -42
-77 -10 -421 -10 -502 -1 -485 56 -914 233 -1285 533 -72 58 -266 246 -322
312 -40 46 -160 210 -194 263 -124 194 -240 456 -299 673 -27 101 -28 105 -45
197 -6 30 -12 64 -14 75 -2 11 -7 47 -10 80 -4 33 -9 78 -12 100 -6 58 -6 310
1 380 15 157 18 178 46 315 26 121 61 243 100 345 17 44 35 94 41 110 6 17 40
86 75 155 241 469 617 839 1088 1070 210 103 371 159 590 205 106 22 199 35
289 41 45 3 82 7 83 8 5 4 252 -2 338 -8z"/>
<path d="M2179 4903 c-24 -14 -64 -37 -87 -50 -24 -14 -65 -38 -90 -54 -26
-16 -55 -32 -64 -35 -10 -4 -18 -11 -18 -16 0 -10 116 -240 500 -993 65 -126
183 -358 263 -515 80 -157 187 -367 238 -467 51 -101 96 -183 101 -183 4 0
166 105 360 233 946 626 1246 826 1250 834 8 13 -170 308 -184 305 -14 -4
-112 -52 -771 -376 -230 -113 -422 -206 -425 -206 -4 0 -52 69 -106 153 -55
83 -144 218 -198 300 -54 81 -98 151 -98 156 0 4 -9 16 -20 26 -11 10 -20 23
-20 30 0 7 -9 20 -20 30 -11 10 -20 24 -20 32 0 7 -4 13 -10 13 -5 0 -10 4
-10 9 0 5 -69 113 -152 240 -84 127 -200 303 -258 391 -58 89 -108 163 -111
165 -3 2 -25 -8 -50 -22z"/>
</g>
</svg>
